<?xml version="1.0" encoding="iso-8859-1"?>
<!-- Generator: Adobe Illustrator 18.0.0, SVG Export Plug-In . SVG Version: 6.00 Build 0)  -->
<!DOCTYPE svg PUBLIC "-//W3C//DTD SVG 1.1//EN" "http://www.w3.org/Graphics/SVG/1.1/DTD/svg11.dtd">
<svg version="1.1" id="Capa_1" xmlns="http://www.w3.org/2000/svg" xmlns:xlink="http://www.w3.org/1999/xlink" x="0px" y="0px"
	 viewBox="0 0 501.978 501.978" style="enable-background:new 0 0 501.978 501.978;" xml:space="preserve">
<g>
	<path d="M263.089,207.734c5.799,0,10.5-4.701,10.5-10.5c0-5.799-4.701-10.5-10.5-10.5h-48c-5.799,0-10.5,4.701-10.5,10.5v107.518
		c0,5.799,4.701,10.5,10.5,10.5h48c5.799,0,10.5-4.701,10.5-10.5c0-5.799-4.701-10.5-10.5-10.5h-37.5v-33.355h37.5
		c5.799,0,10.5-4.701,10.5-10.5c0-5.799-4.701-10.5-10.5-10.5h-37.5v-32.162H263.089z"/>
	<path d="M167.589,186.734c-5.799,0-10.5,4.701-10.5,10.5v67.827l-41.542-73.019c-2.354-4.142-7.201-6.175-11.812-4.958
		c-4.606,1.218-7.814,5.386-7.814,10.15v107.518c0,5.799,4.701,10.5,10.5,10.5c5.799,0,10.5-4.701,10.5-10.5v-67.827l41.542,73.02
		c1.898,3.339,5.419,5.309,9.125,5.309c0.892,0,1.793-0.114,2.686-0.351c4.607-1.218,7.814-5.386,7.814-10.15V197.234
		C178.089,191.436,173.388,186.734,167.589,186.734z"/>
	<path d="M395.549,186.725c-5.799,0-10.499,4.702-10.499,10.501l0.005,72.057l-24.512-37.77c-1.937-2.983-5.251-4.784-8.808-4.784
		c-3.558,0-6.872,1.801-8.809,4.785l-24.508,37.77l-0.004-72.06c0-5.799-4.701-10.499-10.501-10.499
		c-5.799,0-10.499,4.701-10.499,10.501l0.006,107.529c0,4.65,3.061,8.747,7.521,10.067c4.458,1.321,9.257-0.452,11.788-4.354
		l35.007-53.951l35.013,53.952c1.972,3.039,5.317,4.785,8.808,4.785c0.991,0,1.995-0.141,2.98-0.433
		c4.46-1.321,7.52-5.418,7.52-10.069l-0.007-107.529C406.05,191.425,401.348,186.725,395.549,186.725z"/>
	<path d="M477.918,284.097c11.277-8.855,24.06-18.892,24.06-33.108c0-14.216-12.782-24.252-24.06-33.106
		c-6.103-4.792-14.461-11.355-15.335-15.198c-0.961-4.228,3.854-14.064,7.371-21.246c6.489-13.256,13.2-26.963,7.207-39.387
		c-6.085-12.611-21.821-16.07-35.705-19.122c-7.695-1.691-18.235-4.008-20.808-7.231c-2.611-3.269-2.536-14.112-2.481-22.029
		c0.099-14.165,0.21-30.22-10.674-38.909c-4.487-3.583-10.354-5.4-17.435-5.4c-7.276,0-15.137,1.843-22.738,3.626
		c-6.469,1.517-13.156,3.085-18.055,3.085c-2.442,0-3.625-0.396-4.113-0.631c-3.645-1.758-8.221-11.45-11.563-18.526
		c-6.097-12.912-13.007-27.548-26.762-30.673c-1.612-0.367-3.285-0.553-4.973-0.553c-11.421,0-21.657,8.281-31.557,16.289
		C264.026,27.051,255.436,34,250.989,34c-4.447,0-13.038-6.949-19.311-12.024c-9.899-8.008-20.137-16.289-31.559-16.289
		c-1.688,0-3.36,0.186-4.972,0.552c-13.755,3.126-20.665,17.762-26.761,30.674c-3.342,7.076-7.918,16.768-11.561,18.526
		c-0.488,0.235-1.671,0.63-4.113,0.63c-4.898,0-11.587-1.568-18.056-3.085c-7.601-1.782-15.461-3.625-22.738-3.625
		c-7.082,0-12.948,1.817-17.436,5.4c-10.884,8.69-10.772,24.746-10.674,38.91c0.055,7.917,0.13,18.759-2.48,22.028
		c-2.573,3.222-13.112,5.539-20.809,7.231c-13.884,3.052-29.621,6.511-35.705,19.122c-5.993,12.422,0.717,26.13,7.207,39.387
		c3.516,7.182,8.332,17.018,7.37,21.247c-0.873,3.841-9.23,10.403-15.333,15.195C12.783,226.735,0,236.772,0,250.988
		c0,14.216,12.783,24.253,24.062,33.108c6.103,4.792,14.46,11.355,15.333,15.195c0.961,4.229-3.854,14.065-7.371,21.247
		c-6.489,13.257-13.2,26.964-7.207,39.387c6.084,12.611,21.82,16.07,35.705,19.122c7.695,1.691,18.234,4.009,20.808,7.23
		c2.61,3.27,2.535,14.112,2.48,22.029c-0.099,14.165-0.209,30.22,10.674,38.909c4.487,3.583,10.354,5.4,17.436,5.4
		c7.277,0,15.137-1.843,22.738-3.624c6.468-1.517,13.155-3.085,18.054-3.085c2.442,0,3.626,0.396,4.114,0.631
		c3.645,1.758,8.221,11.449,11.563,18.526c6.097,12.911,13.007,27.546,26.761,30.671c1.612,0.367,3.285,0.553,4.973,0.553
		c11.421,0,21.658-8.28,31.558-16.288c6.273-5.073,14.863-12.022,19.311-12.022c4.447,0,13.037,6.949,19.309,12.023
		c9.9,8.009,20.138,16.29,31.561,16.289c1.686-0.001,3.358-0.186,4.97-0.553c13.755-3.127,20.665-17.762,26.762-30.673
		c3.341-7.077,7.918-16.769,11.561-18.526c0.488-0.235,1.671-0.63,4.113-0.63c4.898,0,11.586,1.568,18.053,3.085
		c7.602,1.782,15.464,3.626,22.742,3.625c7.082-0.001,12.948-1.817,17.435-5.4c10.884-8.69,10.772-24.745,10.674-38.91
		c-0.055-7.917-0.13-18.759,2.481-22.028c2.573-3.223,13.112-5.539,20.808-7.231c13.884-3.052,29.62-6.512,35.705-19.123
		c5.993-12.422-0.718-26.13-7.207-39.386c-3.517-7.183-8.332-17.02-7.37-21.248C463.458,295.451,471.815,288.889,477.918,284.097z
		 M107.588,71.17c0.238-0.19,1.255-0.811,4.332-0.811c4.848,0,11.506,1.561,17.945,3.07c7.63,1.789,15.52,3.64,22.849,3.64
		c5.118,0,9.448-0.889,13.237-2.716c10.336-4.986,15.974-16.928,21.426-28.475c3.231-6.845,8.641-18.302,12.426-19.162
		c0.087-0.02,0.194-0.029,0.317-0.029c3.991,0,12.291,6.714,18.352,11.616C228.619,46.512,239.111,55,250.989,55
		c11.877,0,22.37-8.488,32.518-16.696c6.061-4.902,14.359-11.616,18.35-11.616c0.125,0,0.229,0.01,0.317,0.03
		c3.786,0.86,9.195,12.316,12.428,19.161c5.452,11.548,11.091,23.488,21.427,28.475c3.789,1.828,8.119,2.717,13.238,2.717
		c7.327,0,15.218-1.851,22.849-3.64c6.439-1.51,13.097-3.071,17.944-3.071c3.077,0,4.093,0.62,4.332,0.812
		c2.916,2.328,2.829,14.863,2.777,22.353c-0.037,5.463-0.07,11.002,0.451,16.267H104.358c0.521-5.264,0.489-10.803,0.451-16.266
		C104.758,86.035,104.671,73.499,107.588,71.17z M394.391,430.809c-0.238,0.19-1.254,0.811-4.333,0.811
		c-4.848,0.001-11.507-1.561-17.945-3.07c-7.631-1.789-15.521-3.64-22.848-3.64c-5.118,0-9.448,0.889-13.237,2.716
		c-10.336,4.986-15.974,16.927-21.426,28.474c-3.232,6.845-8.643,18.302-12.427,19.162c-0.087,0.02-0.194,0.03-0.318,0.03
		c-3.99,0-12.29-6.714-18.351-11.616c-10.146-8.208-20.639-16.696-32.517-16.696c-11.877,0-22.37,8.487-32.517,16.695
		c-6.061,4.901-14.36,11.615-18.352,11.615c-0.125,0-0.229-0.01-0.317-0.03c-3.785-0.86-9.195-12.315-12.427-19.16
		c-5.452-11.547-11.091-23.487-21.427-28.474c-3.789-1.828-8.119-2.717-13.239-2.717c-7.327,0-15.217,1.85-22.848,3.639
		c-6.438,1.51-13.096,3.07-17.944,3.07c-3.077,0-4.094-0.62-4.332-0.811c-2.917-2.329-2.83-14.864-2.777-22.354
		c0.034-5.029,0.063-10.123-0.339-15.009h293.036c-0.401,4.886-0.373,9.979-0.338,15.01
		C397.221,415.943,397.308,428.479,394.391,430.809z M451.094,329.773c3.259,6.656,8.713,17.797,7.154,21.027
		c-1.649,3.418-13.95,6.122-21.3,7.738c-12.182,2.678-24.751,5.463-32.069,13.905H97.101c-7.319-8.444-19.889-11.229-32.071-13.906
		c-7.35-1.615-19.65-4.319-21.299-7.737c-1.559-3.23,3.896-14.371,7.154-21.027c5.699-11.641,11.592-23.678,8.987-35.137
		c-2.524-11.103-12.853-19.213-22.842-27.057C30.646,262.568,21,254.993,21,250.988c0-4.005,9.646-11.579,16.029-16.592
		c9.989-7.843,20.318-15.954,22.843-27.058c2.604-11.457-3.289-23.494-8.987-35.136c-3.259-6.656-8.713-17.797-7.154-21.027
		c1.648-3.418,13.95-6.122,21.3-7.737c11.559-2.54,23.471-5.173,30.912-12.648h310.095c7.441,7.475,19.352,10.108,30.911,12.648
		c7.35,1.616,19.651,4.319,21.3,7.736c1.559,3.231-3.895,14.372-7.154,21.028c-5.699,11.642-11.592,23.679-8.987,35.136
		c2.524,11.105,12.854,19.216,22.844,27.06c6.383,5.012,16.028,12.585,16.028,16.59c0,4.005-9.646,11.579-16.029,16.592
		c-9.989,7.843-20.318,15.954-22.843,27.058C439.502,306.095,445.396,318.133,451.094,329.773z"/>
</g>
<g>
</g>
<g>
</g>
<g>
</g>
<g>
</g>
<g>
</g>
<g>
</g>
<g>
</g>
<g>
</g>
<g>
</g>
<g>
</g>
<g>
</g>
<g>
</g>
<g>
</g>
<g>
</g>
<g>
</g>
</svg>
